<svg version="1.1" id="Layer_1" xmlns="http://www.w3.org/2000/svg" xmlns:xlink="http://www.w3.org/1999/xlink" x="0px" y="0px"
	 width="100%" viewBox="0 0 650 260" enable-background="new 0 0 650 260" xml:space="preserve">
<path opacity="1.000000" stroke="none" 
	d="
M403.000000,261.000000 
	C268.703400,261.000000 134.906815,261.000000 1.055114,261.000000 
	C1.055114,174.393906 1.055114,87.787750 1.055114,1.090804 
	C217.546616,1.090804 434.093292,1.090804 650.819946,1.090804 
	C650.819946,87.666374 650.819946,174.333145 650.819946,261.000000 
	C568.454407,261.000000 485.977203,261.000000 403.000000,261.000000 
M115.968216,245.688690 
	C107.736610,246.288895 99.255287,244.882065 90.066193,249.002777 
	C120.194870,249.002777 148.961731,249.060226 177.726715,248.855682 
	C179.397858,248.843811 181.589386,247.064941 182.631699,245.503067 
	C190.598343,233.565384 198.339676,221.477341 207.021606,209.539749 
	C209.605530,209.984833 212.221573,210.294540 214.767685,210.898895 
	C224.773392,213.273926 234.684021,216.111191 244.762939,218.104294 
	C272.527100,223.594711 300.285675,229.176788 328.188568,233.879639 
	C346.685608,236.997177 365.376678,239.287628 384.073730,240.802094 
	C402.427032,242.288742 420.895111,242.413971 439.317963,242.963516 
	C448.791779,243.246109 458.276886,243.151459 468.021942,243.803818 
	C470.130219,248.974869 474.218109,249.228348 478.922516,248.382645 
	C480.865692,248.033325 482.912262,248.226974 484.911774,248.228348 
	C533.742798,248.262115 582.573792,248.306015 631.404785,248.327438 
	C632.667419,248.327988 633.930176,248.096786 635.692200,247.924988 
	C634.926575,246.628220 634.453491,245.826996 633.948853,244.237991 
	C632.462830,241.461761 631.491150,238.191132 629.390564,236.005524 
	C623.911133,230.304382 617.823486,225.191345 612.247253,219.576767 
	C610.990540,218.311371 610.829163,215.958115 610.722534,213.689148 
	C619.361633,209.501083 626.781738,203.835312 633.093201,196.507263 
	C649.159729,177.852798 646.389404,156.270050 632.888672,138.381622 
	C621.077576,122.731949 606.351440,110.126358 590.351929,98.992165 
	C586.087341,96.024445 581.261719,93.862999 576.693665,91.331367 
	C576.377808,91.799553 576.061951,92.267731 575.746094,92.735916 
	C576.706055,94.216606 577.611206,95.736328 578.635010,97.171471 
	C583.890930,104.539131 588.592285,112.045250 589.615417,121.440102 
	C590.818237,132.485718 589.783630,142.531830 582.819214,151.998199 
	C577.282898,159.523376 569.986328,164.595474 562.255737,169.950562 
	C561.227722,169.431000 559.983765,169.129669 559.204651,168.358597 
	C550.065063,159.312469 541.087524,150.101456 531.890015,141.115280 
	C502.459167,112.360703 473.006775,83.627380 443.371002,55.084942 
	C441.124451,52.921268 437.435425,51.370689 434.306366,51.157391 
	C418.740540,50.096336 403.133423,49.661266 387.549103,48.847313 
	C371.145630,47.990582 354.752075,46.944653 338.353088,46.000366 
	C327.258026,45.361492 316.165588,44.594845 305.060791,44.282570 
	C303.059418,44.226288 300.224945,45.555645 299.097260,47.169273 
	C290.580994,59.355618 282.428650,71.795532 274.099274,84.113396 
	C253.084106,115.191483 231.983170,146.211853 211.086807,177.369507 
	C209.128113,180.290024 207.143784,181.551697 203.101776,180.710709 
	C196.236343,179.185898 189.275024,177.997223 182.524002,176.071365 
	C164.453598,170.916397 146.463501,165.478333 128.459656,160.092102 
	C102.037292,152.187317 76.437950,142.227539 51.939655,129.488998 
	C45.757599,126.274483 39.377525,123.440788 33.088451,120.432083 
	C37.950539,126.151352 42.924637,131.756577 48.790794,136.178360 
	C69.305763,151.642136 91.382271,164.762558 114.973457,174.775452 
	C139.915512,185.361694 165.554871,194.305023 190.898422,204.724564 
	C187.559677,210.335083 183.840622,215.758469 180.967133,221.597946 
	C176.081589,231.526260 169.405426,236.701202 157.413086,236.539673 
	C143.625443,236.353989 129.802704,238.696320 115.996986,239.960022 
	C107.674034,240.721863 99.354462,241.520630 91.033363,242.302811 
	C98.502304,243.097565 105.946426,243.097824 113.390549,243.097382 
	C115.165924,243.097260 117.294991,242.604889 115.968216,245.688690 
z"/>
<path fill="#EA1F27" opacity="1.000000" stroke="none" 
	d="
M562.923706,170.167007 
	C569.986328,164.595474 577.282898,159.523376 582.819214,151.998199 
	C589.783630,142.531830 590.818237,132.485718 589.615417,121.440102 
	C588.592285,112.045250 583.890930,104.539131 578.635010,97.171471 
	C577.611206,95.736328 576.706055,94.216606 575.746094,92.735916 
	C576.061951,92.267731 576.377808,91.799553 576.693665,91.331367 
	C581.261719,93.862999 586.087341,96.024445 590.351929,98.992165 
	C606.351440,110.126358 621.077576,122.731949 632.888672,138.381622 
	C646.389404,156.270050 649.159729,177.852798 633.093201,196.507263 
	C626.781738,203.835312 619.361633,209.501083 610.071045,213.903290 
	C597.114746,218.860687 584.987000,224.149063 572.462708,228.216583 
	C554.663513,233.997238 536.331665,237.576416 517.613831,239.069962 
	C509.430817,239.722900 501.291107,240.918823 492.677490,241.917145 
	C484.067810,242.386520 475.912323,242.806900 467.756866,243.227295 
	C458.276886,243.151459 448.791779,243.246109 439.317963,242.963516 
	C420.895111,242.413971 402.427032,242.288742 384.073730,240.802094 
	C365.376678,239.287628 346.685608,236.997177 328.188568,233.879639 
	C300.285675,229.176788 272.527100,223.594711 244.762939,218.104294 
	C234.684021,216.111191 224.773392,213.273926 214.767685,210.898895 
	C212.221573,210.294540 209.605530,209.984833 206.413513,209.215973 
	C204.582428,208.612549 203.359436,208.332916 201.933609,207.745193 
	C198.117050,206.280060 194.503357,205.123016 190.889648,203.965988 
	C165.554871,194.305023 139.915512,185.361694 114.973457,174.775452 
	C91.382271,164.762558 69.305763,151.642136 48.790794,136.178360 
	C42.924637,131.756577 37.950539,126.151352 33.088451,120.432083 
	C39.377525,123.440788 45.757599,126.274483 51.939655,129.488998 
	C76.437950,142.227539 102.037292,152.187317 128.459656,160.092102 
	C146.463501,165.478333 164.453598,170.916397 182.524002,176.071365 
	C189.275024,177.997223 196.236343,179.185898 203.721893,181.123657 
	C209.232422,182.274445 214.122833,183.012314 219.394897,183.844833 
	C220.799240,184.131607 221.821945,184.323730 223.158295,184.714203 
	C234.251419,186.995651 244.982239,189.388290 255.821274,191.092468 
	C274.021637,193.954010 292.234589,196.917496 310.547699,198.826477 
	C327.350616,200.578064 344.281494,201.307632 361.176605,201.915115 
	C380.444824,202.607880 399.735016,202.769348 419.017548,202.919312 
	C423.071320,202.950836 427.133270,201.928650 431.572632,201.329254 
	C432.988739,201.204941 434.023682,201.143372 435.444214,201.153320 
	C437.130859,201.438446 438.461517,201.946121 439.728394,201.818878 
	C449.440582,200.843491 459.226440,200.240143 468.824799,198.573349 
	C485.076660,195.751144 501.311554,192.673050 517.360229,188.883591 
	C533.463562,185.081207 548.888123,179.208313 562.923706,170.167007 
z"/>
<path fill="#A6A8AA" opacity="1.000000" stroke="none" 
	d="
M562.589722,170.058777 
	C548.888123,179.208313 533.463562,185.081207 517.360229,188.883591 
	C501.311554,192.673050 485.076660,195.751144 468.824799,198.573349 
	C459.226440,200.240143 449.440582,200.843491 439.728394,201.818878 
	C438.461517,201.946121 437.130859,201.438446 435.384003,200.803802 
	C432.846924,197.638794 430.902649,194.766479 428.639679,192.172241 
	C416.487335,178.240967 404.213531,164.415604 392.062866,150.482864 
	C379.170807,135.700058 366.368256,120.839157 353.529266,106.010078 
	C343.573975,94.511688 333.644745,82.990646 323.661224,71.516815 
	C317.947723,64.950417 312.148865,58.458279 305.856689,51.330322 
	C302.805603,55.922565 300.098297,59.955421 297.432922,64.015816 
	C280.367035,90.013977 263.299500,116.011086 246.255005,142.023300 
	C237.151154,155.917007 228.092361,169.840256 219.013245,183.750168 
	C214.122833,183.012314 209.232422,182.274445 204.085022,181.215134 
	C207.143784,181.551697 209.128113,180.290024 211.086807,177.369507 
	C231.983170,146.211853 253.084106,115.191483 274.099274,84.113396 
	C282.428650,71.795532 290.580994,59.355618 299.097260,47.169273 
	C300.224945,45.555645 303.059418,44.226288 305.060791,44.282570 
	C316.165588,44.594845 327.258026,45.361492 338.353088,46.000366 
	C354.752075,46.944653 371.145630,47.990582 387.549103,48.847313 
	C403.133423,49.661266 418.740540,50.096336 434.306366,51.157391 
	C437.435425,51.370689 441.124451,52.921268 443.371002,55.084942 
	C473.006775,83.627380 502.459167,112.360703 531.890015,141.115280 
	C541.087524,150.101456 550.065063,159.312469 559.204651,168.358597 
	C559.983765,169.129669 561.227722,169.431000 562.589722,170.058777 
z"/>
<path fill="#A7A7A9" opacity="1.000000" stroke="none" 
	d="
M493.131744,241.868164 
	C501.291107,240.918823 509.430817,239.722900 517.613831,239.069962 
	C536.331665,237.576416 554.663513,233.997238 572.462708,228.216583 
	C584.987000,224.149063 597.114746,218.860687 609.791565,214.111542 
	C610.829163,215.958115 610.990540,218.311371 612.247253,219.576767 
	C617.823486,225.191345 623.911133,230.304382 629.390564,236.005524 
	C631.491150,238.191132 632.462830,241.461761 633.589722,244.518219 
	C630.168823,244.197372 627.113708,243.111816 624.044189,243.069748 
	C591.250000,242.620300 558.453979,242.263855 525.657349,242.061295 
	C518.198975,242.015213 510.738434,242.815491 503.274719,242.914307 
	C499.898926,242.959030 496.513062,242.240463 493.131744,241.868164 
z"/>
<path fill="#050505" opacity="1.000000" stroke="none" 
	d="
M492.677490,241.917145 
	C496.513062,242.240463 499.898926,242.959030 503.274719,242.914307 
	C510.738434,242.815491 518.198975,242.015213 525.657349,242.061295 
	C558.453979,242.263855 591.250000,242.620300 624.044189,243.069748 
	C627.113708,243.111816 630.168823,244.197372 633.605530,244.912109 
	C634.453491,245.826996 634.926575,246.628220 635.692200,247.924988 
	C633.930176,248.096786 632.667419,248.327988 631.404785,248.327438 
	C582.573792,248.306015 533.742798,248.262115 484.911774,248.228348 
	C482.912262,248.226974 480.865692,248.033325 478.922516,248.382645 
	C474.218109,249.228348 470.130219,248.974869 467.889404,243.515564 
	C475.912323,242.806900 484.067810,242.386520 492.677490,241.917145 
z"/>
<path fill="#A7A8AA" opacity="1.000000" stroke="none" 
	d="
M190.894043,204.345276 
	C194.503357,205.123016 198.117050,206.280060 201.857269,208.095703 
	C195.600647,218.692673 189.223846,228.635162 182.830566,238.567032 
	C180.877014,241.601852 178.581726,243.233200 174.450775,243.123474 
	C155.220657,242.612732 135.987320,242.765808 116.889694,245.623886 
	C117.294991,242.604889 115.165924,243.097260 113.390549,243.097382 
	C105.946426,243.097824 98.502304,243.097565 91.033363,242.302811 
	C99.354462,241.520630 107.674034,240.721863 115.996986,239.960022 
	C129.802704,238.696320 143.625443,236.353989 157.413086,236.539673 
	C169.405426,236.701202 176.081589,231.526260 180.967133,221.597946 
	C183.840622,215.758469 187.559677,210.335083 190.894043,204.345276 
z"/>
<path fill="#050505" opacity="1.000000" stroke="none" 
	d="
M116.428955,245.656281 
	C135.987320,242.765808 155.220657,242.612732 174.450775,243.123474 
	C178.581726,243.233200 180.877014,241.601852 182.830566,238.567032 
	C189.223846,228.635162 195.600647,218.692673 202.060120,208.403778 
	C203.359436,208.332916 204.582428,208.612549 205.978241,209.164124 
	C198.339676,221.477341 190.598343,233.565384 182.631699,245.503067 
	C181.589386,247.064941 179.397858,248.843811 177.726715,248.855682 
	C148.961731,249.060226 120.194870,249.002777 90.066193,249.002777 
	C99.255287,244.882065 107.736610,246.288895 116.428955,245.656281 
z"/>
<path fill="#ECE9E9" opacity="1.000000" stroke="none" 
	d="
M431.191467,201.391998 
	C427.133270,201.928650 423.071320,202.950836 419.017548,202.919312 
	C399.735016,202.769348 380.444824,202.607880 361.176605,201.915115 
	C344.281494,201.307632 327.350616,200.578064 310.547699,198.826477 
	C292.234589,196.917496 274.021637,193.954010 255.821274,191.092468 
	C244.982239,189.388290 234.251419,186.995651 223.431061,184.439392 
	C224.303345,182.419968 225.156067,180.834106 226.138641,179.333252 
	C247.632812,146.501328 269.126587,113.669090 290.658234,80.861717 
	C295.740723,73.117577 300.959961,65.463181 306.709686,56.881908 
	C348.596252,105.507751 389.893860,153.449875 431.191467,201.391998 
M331.862976,94.331596 
	C317.722534,89.630859 303.419128,93.796898 288.901337,92.875465 
	C288.901337,111.432236 288.889862,129.318497 288.944733,147.204544 
	C288.946838,147.894836 289.586609,148.583176 289.988983,150.111023 
	C293.326141,150.431030 296.660736,150.991058 300.000977,151.026962 
	C310.926575,151.144424 321.854279,151.071045 332.027802,151.071045 
	C332.027802,132.009628 332.027802,113.562691 331.862976,94.331596 
z"/>
<path fill="#080808" opacity="1.000000" stroke="none" 
	d="
M431.572632,201.329254 
	C389.893860,153.449875 348.596252,105.507751 306.709686,56.881908 
	C300.959961,65.463181 295.740723,73.117577 290.658234,80.861717 
	C269.126587,113.669090 247.632812,146.501328 226.138641,179.333252 
	C225.156067,180.834106 224.303345,182.419968 223.117401,184.241028 
	C221.821945,184.323730 220.799240,184.131607 219.394897,183.844833 
	C228.092361,169.840256 237.151154,155.917007 246.255005,142.023300 
	C263.299500,116.011086 280.367035,90.013977 297.432922,64.015816 
	C300.098297,59.955421 302.805603,55.922565 305.856689,51.330322 
	C312.148865,58.458279 317.947723,64.950417 323.661224,71.516815 
	C333.644745,82.990646 343.573975,94.511688 353.529266,106.010078 
	C366.368256,120.839157 379.170807,135.700058 392.062866,150.482864 
	C404.213531,164.415604 416.487335,178.240967 428.639679,192.172241 
	C430.902649,194.766479 432.846924,197.638794 434.998474,200.732269 
	C434.023682,201.143372 432.988739,201.204941 431.572632,201.329254 
z"/>
<path fill="#E43136" opacity="1.000000" stroke="none" 
	d="
M289.929230,149.272415 
	C289.586609,148.583176 288.946838,147.894836 288.944733,147.204544 
	C288.889862,129.318497 288.901337,111.432236 288.901337,92.875465 
	C303.419128,93.796898 317.722534,89.630859 331.599792,94.940361 
	C330.971313,99.660492 330.280487,103.773643 330.303040,107.882881 
	C330.365753,119.316322 330.786652,130.747299 330.942780,142.180923 
	C331.031677,148.689758 330.714325,148.913879 324.256775,148.974457 
	C312.814331,149.081787 301.371765,149.173920 289.929230,149.272415 
M307.967194,103.545952 
	C307.815735,102.905968 307.735046,101.735870 307.502258,101.704781 
	C303.411987,101.158684 299.293427,100.458755 295.207550,100.593918 
	C294.500732,100.617294 293.563995,104.271149 293.355469,106.311646 
	C293.037415,109.423759 292.950348,112.636154 293.393890,115.715408 
	C293.599640,117.143738 295.051636,119.166740 296.338959,119.540184 
	C305.084167,122.077087 308.675873,119.270775 308.700439,110.226997 
	C308.705811,108.255531 308.478607,106.283440 307.967194,103.545952 
M293.833221,132.490463 
	C293.833221,135.587997 293.833221,138.685547 293.833221,141.826538 
	C298.849731,141.826538 303.226135,141.826538 307.776428,141.826538 
	C307.776428,135.593246 307.776428,129.719788 307.776428,123.801788 
	C303.003937,123.801788 298.605804,123.801788 293.830963,123.801788 
	C293.830963,126.594269 293.830963,129.050095 293.833221,132.490463 
M315.709839,123.827492 
	C314.525909,124.748482 312.387970,125.603271 312.318695,126.601601 
	C311.969025,131.641632 312.157990,136.719025 312.157990,141.857391 
	C317.368103,141.857391 321.580566,141.857391 325.848206,141.857391 
	C325.848206,135.677795 325.848206,129.813202 325.848206,123.811958 
	C322.564667,123.811958 319.611389,123.811958 315.709839,123.827492 
M315.636993,119.177513 
	C327.007965,118.714760 326.753632,121.700310 326.128082,107.753578 
	C326.026215,105.481964 325.864441,103.213043 325.728516,100.911919 
	C321.128845,100.911919 316.887238,100.911919 311.767029,100.911919 
	C312.188782,106.908157 312.561218,112.595955 313.057861,118.272881 
	C313.087128,118.607552 314.116516,118.854729 315.636993,119.177513 
z"/>
<path fill="#6C1110" opacity="1.000000" stroke="none" 
	d="
M289.959106,149.691711 
	C301.371765,149.173920 312.814331,149.081787 324.256775,148.974457 
	C330.714325,148.913879 331.031677,148.689758 330.942780,142.180923 
	C330.786652,130.747299 330.365753,119.316322 330.303040,107.882881 
	C330.280487,103.773643 330.971313,99.660492 331.682190,95.332443 
	C332.027802,113.562691 332.027802,132.009628 332.027802,151.071045 
	C321.854279,151.071045 310.926575,151.144424 300.000977,151.026962 
	C296.660736,150.991058 293.326141,150.431030 289.959106,149.691711 
z"/>
<path fill="#FBE4E4" opacity="1.000000" stroke="none" 
	d="
M308.162872,103.928795 
	C308.478607,106.283440 308.705811,108.255531 308.700439,110.226997 
	C308.675873,119.270775 305.084167,122.077087 296.338959,119.540184 
	C295.051636,119.166740 293.599640,117.143738 293.393890,115.715408 
	C292.950348,112.636154 293.037415,109.423759 293.355469,106.311646 
	C293.563995,104.271149 294.500732,100.617294 295.207550,100.593918 
	C299.293427,100.458755 303.411987,101.158684 307.502258,101.704781 
	C307.735046,101.735870 307.815735,102.905968 308.162872,103.928795 
z"/>
<path fill="#FBF6F6" opacity="1.000000" stroke="none" 
	d="
M293.832092,131.998184 
	C293.830963,129.050095 293.830963,126.594269 293.830963,123.801788 
	C298.605804,123.801788 303.003937,123.801788 307.776428,123.801788 
	C307.776428,129.719788 307.776428,135.593246 307.776428,141.826538 
	C303.226135,141.826538 298.849731,141.826538 293.833221,141.826538 
	C293.833221,138.685547 293.833221,135.587997 293.832092,131.998184 
z"/>
<path fill="#FBF6F6" opacity="1.000000" stroke="none" 
	d="
M316.183960,123.819725 
	C319.611389,123.811958 322.564667,123.811958 325.848206,123.811958 
	C325.848206,129.813202 325.848206,135.677795 325.848206,141.857391 
	C321.580566,141.857391 317.368103,141.857391 312.157990,141.857391 
	C312.157990,136.719025 311.969025,131.641632 312.318695,126.601601 
	C312.387970,125.603271 314.525909,124.748482 316.183960,123.819725 
z"/>
<path fill="#FBF6F6" opacity="1.000000" stroke="none" 
	d="
M315.158752,119.160065 
	C314.116516,118.854729 313.087128,118.607552 313.057861,118.272881 
	C312.561218,112.595955 312.188782,106.908157 311.767029,100.911919 
	C316.887238,100.911919 321.128845,100.911919 325.728516,100.911919 
	C325.864441,103.213043 326.026215,105.481964 326.128082,107.753578 
	C326.753632,121.700310 327.007965,118.714760 315.158752,119.160065 
z"/>
</svg>